<?xml version="1.0" encoding="utf-8"?>
<!-- Generator: Adobe Illustrator 27.5.0, SVG Export Plug-In . SVG Version: 6.00 Build 0)  -->
<svg version="1.1" id="Capa_1" xmlns="http://www.w3.org/2000/svg" xmlns:xlink="http://www.w3.org/1999/xlink" x="0px" y="0px"
	 viewBox="0 0 2267 1986" style="enable-background:new 0 0 2267 1986;" xml:space="preserve">
<path style="fill:#8D99C9;" d="M1511.246,691.715c-26.685-60.053-64.958-117.204-112.422-163.313
	c-86.48-3.653-177.683-5.469-269.121-5.469c-385.511,0-774.959,32.195-829.922,94.322c-55.507,62.74-81.202,355.597-70.713,598.436
	c0.342-0.016,0.672-0.104,1.016-0.104h1208.012c19.245-25.762,36.423-52.849,51.269-81.028c-39.57-7.288-71.983-19.714-92.37-36.188
	c-41.138-33.242-50.962-107.748-53.156-149.201c-4.013-75.823,10.348-170.741,51.481-211.873
	C1422.941,709.675,1470.714,697.248,1511.246,691.715z M410.858,715.039c-1.238,0.688-2.199,1.297-2.887,1.763
	c-1.035,2.099-2.246,4.83-3.519,8.208c-1.899,5.01-3.925,11.307-5.929,18.644c-4.027,14.692-7.954,33.509-11.582,55.35
	c-7.29,43.742-13.448,99.571-19.125,162.229v0c-2.394,26.388-25.727,45.838-52.115,43.444
	c-26.388-2.394-45.839-25.726-43.445-52.114c3.798-41.843,7.814-81.044,12.368-116.578c4.564-35.554,9.627-67.385,15.763-94.977
	c4.116-18.422,8.659-34.943,14.325-49.961c3.26-8.592,6.884-16.715,11.387-24.586c3.365-5.861,7.278-10.834,11.353-15.122
	c4.086-4.291,8.35-7.922,12.704-11.151c8.722-6.432,17.822-11.349,27.523-15.74c19.368-8.677,41.407-15.261,66.838-21.22
	c16.93-3.941,35.302-7.511,55.028-10.809c26.296-4.394,54.995-8.298,85.682-11.818c40.911-4.691,85.349-8.698,132.116-12.181
	c62.352-4.642,128.84-8.35,196.421-11.445c26.468-1.212,48.908,19.262,50.12,45.73c1.212,26.468-19.262,48.908-45.73,50.12
	c-77.335,3.542-152.935,7.885-221.773,13.463c-68.812,5.567-130.945,12.406-180.731,20.722
	c-33.139,5.508-60.873,11.768-80.462,18.115C424.031,708.702,415.561,712.372,410.858,715.039z M1208.431,1034.386
	c0,19.488-15.854,35.342-35.342,35.342H516.513c-19.488,0-35.342-15.854-35.342-35.342v-54.417
	c0-19.488,15.854-35.343,35.342-35.343h656.576c19.488,0,35.342,15.855,35.342,35.343V1034.386z M1208.431,849.337
	c0,19.488-15.854,35.342-35.342,35.342H516.513c-19.488,0-35.342-15.854-35.342-35.342v-54.417
	c0-19.487,15.854-35.342,35.342-35.342h656.576c19.488,0,35.342,15.854,35.342,35.342V849.337z"/>
<path style="fill:#93D3EA;" d="M1997.677,1386.978H244.352c-0.193,0-0.377,0.083-0.505,0.229c-0.128,0.151-0.182,0.344-0.154,0.536
	c0.799,5.388,1.71,11.151,2.782,17.621c0.232,1.4,0.468,2.795,0.706,4.185c1.949,11.442,4.06,22.478,6.273,32.807
	c0.279,1.302,0.557,2.588,0.841,3.879c1.299,5.903,2.408,10.682,3.49,15.039c0.073,0.296,0.339,0.505,0.646,0.505h1723.124
	c0.296,0,0.556-0.198,0.64-0.484c1.254-4.368,2.54-9.146,4.034-15.05c0.26-1.026,0.521-2.051,0.776-3.082l0.193-0.776
	c2.561-10.396,4.977-21.443,7.184-32.827c0.271-1.39,0.536-2.785,0.802-4.186c1.203-6.372,2.233-12.134,3.16-17.73
	C1998.343,1387.274,1998.046,1386.978,1997.677,1386.978z"/>
<path style="fill:#93D3EA;" d="M1373.517,1012.546c0.703,2.884,1.463,5.789,2.27,8.631l0.234,0.828
	c0.271,0.953,0.542,1.9,0.817,2.837c0.479,1.593,0.969,3.16,1.473,4.717c0.609,1.858,1.234,3.675,1.88,5.476
	c0.573,1.598,1.166,3.165,1.77,4.717c0.64,1.655,1.301,3.279,1.978,4.872l0.385,0.911c0.297,0.703,0.594,1.4,0.901,2.093
	c0.968,2.14,2.025,4.316,3.222,6.648c0.422,0.807,0.843,1.593,1.27,2.384c1.337,2.468,2.561,4.587,3.753,6.476
	c0.14,0.219,0.286,0.432,0.426,0.64l0.308,0.453c1.197,1.848,2.493,3.696,3.847,5.487l0.38,0.51
	c0.203,0.271,0.406,0.541,0.609,0.807c1.473,1.874,3.04,3.686,4.654,5.394c0.229,0.245,0.463,0.479,0.698,0.713l0.343,0.344
	c1.937,1.968,3.603,3.498,5.242,4.826c7.835,6.325,17.955,12.072,30.084,17.075c22.27,9.193,51.385,15.862,84.208,19.282
	l2.613,0.271c7.22,0.708,14.602,1.26,21.947,1.64c8.798,0.463,17.637,0.697,26.273,0.697c67.393,0,126.707-12.795,158.676-34.232
	c2.311-1.547,4.482-3.139,6.45-4.732c24.909-20.125,36.164-61.776,41.213-93.172c6.507-40.423,6.507-88.357,0-131.517
	c-0.161-1.093-0.339-2.187-0.516-3.275c-1.072-6.762-2.332-13.509-3.753-20.052c-1.093-5.06-2.124-9.417-3.144-13.327
	c-1.947-7.45-4.128-14.592-6.476-21.224c-7.496-21.146-16.674-37.242-27.273-47.841c-1.687-1.681-3.597-3.394-5.674-5.081
	c-0.516-0.416-1.062-0.817-1.609-1.223l-1.452-1.083c-1.088-0.817-2.171-1.634-3.332-2.426c-0.854-0.578-1.754-1.135-2.661-1.697
	l-1.447-0.901c-0.953-0.599-1.911-1.197-2.91-1.77c-1.437-0.828-2.936-1.624-4.451-2.411l-0.479-0.255
	c-0.869-0.453-1.744-0.911-2.64-1.354c-1.666-0.817-3.472-1.661-5.356-2.499c-0.885-0.395-1.776-0.786-2.687-1.176
	c-2.197-0.932-4.258-1.764-6.299-2.545c-0.698-0.266-1.395-0.526-2.098-0.781c-2.624-0.968-5.024-1.811-7.34-2.577l-1.276-0.406
	c-3.082-0.989-5.872-1.838-8.532-2.592c-0.224-0.052-0.464-0.01-0.641,0.156c-0.172,0.161-0.245,0.401-0.192,0.63
	c19.579,87.982,9.579,211.732-36.081,248.625c-51.963,41.994-188.941,48.361-272.118,25.805c-0.219-0.062-0.458,0.005-0.625,0.156
	c-0.166,0.156-0.245,0.385-0.203,0.614c0.781,4.139,1.671,8.371,2.645,12.567
	C1373.048,1010.646,1373.283,1011.598,1373.517,1012.546z"/>
<path style="fill:#7988C3;" d="M2006.011,903.044c-11.468-115.296-30.922-206.537-54.795-256.965
	c-5.721-12.077-11.749-21.921-17.918-29.256c-1.026-1.213-2.27-2.494-3.904-4.019c-0.349-0.328-0.708-0.651-1.073-0.973
	c-1.661-1.463-3.233-2.738-4.821-3.894l-0.478,0.478c0,0-0.001,0-0.001,0l0.25-0.639c-1.552-1.119-3.358-2.316-5.524-3.654
	c-0.489-0.302-0.983-0.609-1.489-0.906c-2.389-1.421-4.482-2.588-6.564-3.66c-0.12-0.067-0.245-0.13-0.37-0.187l-0.177-0.089
	c-1.999-1.026-4.294-2.129-7.017-3.373l-0.296-0.13c-0.51-0.235-1.02-0.464-1.541-0.693c-2.842-1.26-5.555-2.4-8.288-3.478
	c-0.26-0.104-0.541-0.208-0.854-0.322c-2.697-1.057-5.528-2.103-8.407-3.118c-0.723-0.266-1.437-0.516-2.171-0.77
	c-3.456-1.197-6.695-2.27-9.901-3.285l-1.208-0.365c-3.108-0.968-6.387-1.947-9.745-2.905l-0.401-0.115
	c-0.656-0.193-1.312-0.38-1.973-0.562c-3.977-1.125-7.731-2.134-11.469-3.103l-1.53-0.385c-3.587-0.911-7.273-1.817-11.031-2.712
	l-0.854-0.203c-0.573-0.135-1.145-0.271-1.723-0.406c-4.524-1.056-8.756-2.009-12.931-2.91l-1.848-0.39
	c-4.019-0.854-8.121-1.703-12.301-2.541l-2.645-0.526c-4.69-0.927-9.464-1.833-14.352-2.728l-2.155-0.385
	c-4.435-0.802-8.949-1.593-13.54-2.374l-2.634-0.448c-5.138-0.864-10.37-1.707-15.7-2.551l-2.4-0.37
	c-4.862-0.75-9.797-1.494-14.81-2.223l-2.525-0.37c-5.565-0.802-11.224-1.587-16.965-2.358l-2.687-0.359
	c-5.258-0.697-10.583-1.384-15.981-2.061l-2.348-0.296c-5.987-0.745-12.052-1.468-18.189-2.181
	c-0.948-0.109-1.895-0.219-2.838-0.323c-5.736-0.661-11.531-1.307-17.387-1.936l-1.89-0.208c-6.387-0.682-12.853-1.354-19.381-2.004
	l-2.988-0.296c-6.148-0.604-12.348-1.203-18.62-1.786l-1.557-0.146c-6.731-0.619-13.54-1.233-20.406-1.817l-3.15-0.276
	c-6.543-0.557-13.15-1.104-19.813-1.63l-1.145-0.094c-7.09-0.562-14.253-1.109-21.473-1.64l-2.978-0.213
	c-7.147-0.521-14.337-1.031-21.708-1.526c-7.428-0.505-14.925-0.989-22.468-1.457l-3.087-0.188
	c-14.685-0.911-29.985-1.775-45.467-2.582l-3.316-0.172c-15.06-0.776-30.755-1.51-46.649-2.191l-1.561-0.068
	c-0.266,0.031-0.531,0.151-0.635,0.406c-0.109,0.255-0.047,0.552,0.151,0.744c45.811,44.504,84.635,100.902,112.272,163.106
	c0.125,0.271,0.411,0.448,0.697,0.39c27.617-3.774,51.808-4.336,63.77-4.336c30.401,0,133.173,3.586,179.311,49.73
	c40.99,40.984,55.295,135.687,51.287,211.362c-2.187,41.339-11.963,115.63-52.906,148.717
	c-33.644,27.184-100.07,43.41-177.692,43.41c-30.297,0-59.1-2.478-85.618-7.361c-0.281-0.021-0.573,0.089-0.708,0.343
	c-14.68,27.867-31.911,55.102-51.214,80.944c-0.151,0.203-0.172,0.474-0.057,0.698c0.109,0.229,0.344,0.369,0.593,0.369h575.159
	c0.156,0,0.302,0.021,0.448,0.042c0.167,0.026,0.339,0.047,0.51,0.057h0.031c0.166,0,0.328-0.063,0.448-0.177
	c0.135-0.12,0.208-0.287,0.219-0.464c4.201-99.908,1.161-209.722-8.558-309.22L2006.011,903.044z"/>
<path style="fill:#7988C3;" d="M1974.808,1481.768H264.22c-0.211,0-0.408,0.099-0.534,0.271c-0.127,0.166-0.164,0.385-0.104,0.588
	c0.589,1.968,1.19,3.889,1.793,5.799l0.328,1.046c0.187,0.599,0.375,1.197,0.564,1.78c1.034,3.17,2.072,6.206,3.082,9.006
	c0.182,0.505,0.365,0.99,0.547,1.479l0.323,0.859c0.833,2.254,1.679,4.457,2.538,6.596c0.344,0.854,0.69,1.718,1.038,2.556
	c1.218,2.926,2.306,5.419,3.324,7.616l0.203,0.443c1.048,2.244,2.212,4.571,3.555,7.111c0.276,0.526,0.56,1.041,0.841,1.551
	l0.234,0.427c0.971,1.77,1.981,3.509,2.996,5.169l0.31,0.51c0.19,0.323,0.38,0.641,0.573,0.943c1.278,2.014,2.593,3.936,3.907,5.711
	c0.177,0.239,0.359,0.469,0.541,0.698l0.359,0.458c1.059,1.385,2.163,2.722,3.282,3.983l0.208,0.234
	c0.315,0.354,0.632,0.708,0.953,1.052c1.595,1.702,2.951,3.019,4.266,4.149c0.791,0.677,1.684,1.364,2.65,2.035
	c0.164,0.12,0.346,0.234,0.531,0.349l0.432,0.281c0.695,0.458,1.388,0.921,2.163,1.38c0.242,0.146,0.508,0.286,0.773,0.427
	l0.856,0.473c0.633,0.354,1.266,0.708,1.957,1.062c0.32,0.161,0.661,0.323,1.002,0.484l1.213,0.578
	c0.593,0.291,1.189,0.578,1.832,0.869c0.395,0.178,0.814,0.349,1.236,0.526l1.237,0.52c0.664,0.286,1.322,0.568,2.028,0.849
	c0.45,0.177,0.924,0.354,1.398,0.531l1.522,0.578c0.664,0.25,1.327,0.505,2.025,0.755c0.5,0.177,1.02,0.354,1.543,0.531l0.999,0.339
	c0.94,0.323,1.866,0.646,2.85,0.963c0.599,0.192,1.226,0.385,1.851,0.583l1.655,0.515c0.758,0.234,1.518,0.474,2.311,0.708
	l3.894,1.109c0.762,0.219,1.533,0.437,2.327,0.656c0.773,0.203,1.569,0.411,2.366,0.619l0.791,0.208
	c1.158,0.307,2.306,0.609,3.506,0.911l3.93,0.958c1.034,0.249,2.064,0.499,3.129,0.749c0.987,0.229,2.004,0.458,3.019,0.687
	l1.158,0.26c1.085,0.239,2.171,0.484,3.285,0.729c0.929,0.203,1.882,0.401,2.838,0.599l1.022,0.214
	c1.323,0.281,2.64,0.557,3.998,0.838l4.36,0.859c1.294,0.255,2.588,0.51,3.91,0.76l2.757,0.516l39.051,6.398
	c1.648,0.239,3.293,0.479,4.963,0.713c1.328,0.187,2.665,0.375,4.014,0.557l6.382,0.88l27.726,3.478
	c1.801,0.213,3.611,0.426,5.435,0.635c2.038,0.234,4.097,0.469,6.164,0.698c1.845,0.208,3.696,0.416,5.565,0.619l12.007,1.28
	c2.137,0.224,4.284,0.442,6.445,0.661c1.944,0.198,3.899,0.396,5.864,0.589c2.191,0.219,4.396,0.437,6.614,0.65
	c1.988,0.193,3.987,0.385,5.994,0.573l33.114,2.957c2.088,0.177,4.186,0.349,6.291,0.52c2.4,0.198,4.807,0.396,7.233,0.589
	l6.507,0.515c2.439,0.193,4.883,0.38,7.346,0.568c2.147,0.166,4.313,0.328,6.476,0.489l7.603,0.562
	c2.191,0.161,4.401,0.317,6.611,0.473l14.321,1c2.642,0.182,5.284,0.359,7.944,0.536l14.75,0.953
	c2.205,0.141,4.43,0.276,6.651,0.416l8.308,0.51c2.259,0.135,4.534,0.271,6.804,0.401l0.169,0.011
	c2.71,0.161,5.419,0.323,8.147,0.479l23.027,1.27c2.658,0.141,5.31,0.281,7.981,0.422l23.952,1.193
	c2.548,0.125,5.091,0.245,7.652,0.364c2.645,0.125,5.31,0.25,7.968,0.37l0.312,0.016c2.631,0.119,5.26,0.239,7.905,0.354
	c2.571,0.115,5.164,0.229,7.746,0.339l8.54,0.369c2.655,0.109,5.326,0.219,7.991,0.323l8.436,0.344
	c2.751,0.109,5.523,0.219,8.287,0.323l93.201,3.035c11.536,0.307,23.137,0.599,34.8,0.864l77.302,1.426
	c3.735,0.057,7.47,0.109,11.211,0.156l35.638,0.406l89.996,0.432l35.186-0.057l87.685-0.703l72.839-1.218
	c26.893-0.562,53.676-1.25,79.595-2.046l0.719-0.021c4.009-0.12,8.001-0.25,11.989-0.38l4.774-0.156
	c3.847-0.125,7.668-0.255,11.495-0.39l4.841-0.167c3.857-0.135,7.694-0.276,11.531-0.416l4.804-0.177
	c3.608-0.135,7.194-0.276,10.781-0.416l5.424-0.214c3.56-0.14,7.095-0.286,10.63-0.437l37.101-1.645
	c3.29-0.156,6.559-0.318,9.828-0.479l21.151-1.078c3.061-0.161,6.101-0.328,9.141-0.495l5.992-0.328
	c3.102-0.172,6.184-0.349,9.266-0.526l5.664-0.328c2.977-0.177,5.929-0.354,8.886-0.531l5.94-0.365
	c3.051-0.188,6.07-0.38,9.089-0.573l20.026-1.323c2.853-0.193,5.685-0.39,8.511-0.588l5.648-0.401
	c2.832-0.203,5.638-0.411,8.438-0.619l5.466-0.406c2.826-0.213,5.627-0.427,8.418-0.646c1.775-0.135,3.556-0.276,5.315-0.416
	c2.754-0.219,5.487-0.438,8.21-0.661c1.77-0.141,3.54-0.287,5.299-0.432c2.697-0.224,5.372-0.453,8.038-0.682
	c1.739-0.146,3.472-0.297,5.195-0.448l20.516-1.864c1.811-0.172,3.613-0.344,5.408-0.521c2.405-0.229,4.8-0.463,7.179-0.697
	l5.221-0.526c2.384-0.239,4.758-0.484,7.121-0.729l5.044-0.531c2.343-0.25,4.67-0.5,6.981-0.755
	c1.666-0.182,3.321-0.365,4.971-0.552c2.249-0.25,4.487-0.505,6.705-0.76c1.661-0.188,3.306-0.38,4.94-0.573l6.538-0.781
	l26.591-3.436c1.973-0.271,3.93-0.542,5.867-0.818l4.529-0.656c1.911-0.276,3.811-0.557,5.685-0.838l4.394-0.672
	c1.833-0.281,3.66-0.568,5.451-0.854c1.062-0.161,2.114-0.333,3.155-0.505l1.229-0.198c1.723-0.281,3.441-0.562,5.143-0.849
	c1.432-0.239,2.842-0.484,4.248-0.729l1.65-0.286c1.119-0.193,2.238-0.385,3.336-0.583c1.364-0.245,2.702-0.489,4.045-0.739
	c1.609-0.291,3.222-0.588,4.8-0.89c1.218-0.229,2.411-0.464,3.608-0.698l1.785-0.349c1.046-0.208,2.093-0.411,3.113-0.62
	l3.717-0.771c1.484-0.307,2.978-0.619,4.425-0.932c1.145-0.245,2.269-0.495,3.394-0.75l0.219-0.052
	c1.385-0.302,2.775-0.614,4.123-0.921c0.776-0.182,1.526-0.365,2.28-0.542l1.775-0.427c1.124-0.27,2.254-0.536,3.352-0.812
	c0.895-0.219,1.764-0.442,2.634-0.666l1.895-0.489c0.833-0.219,1.661-0.432,2.468-0.646c0.833-0.224,1.64-0.448,2.447-0.677
	l1.791-0.494c0.802-0.224,1.598-0.442,2.368-0.666c0.776-0.229,1.526-0.453,2.275-0.682l1.484-0.447
	c0.828-0.25,1.656-0.5,2.452-0.75c0.693-0.219,1.359-0.442,2.025-0.661l1.978-0.651c0.614-0.203,1.223-0.401,1.817-0.603
	c0.609-0.214,1.192-0.427,1.77-0.635l1.588-0.578c0.687-0.245,1.374-0.489,2.035-0.734c0.557-0.213,1.088-0.427,1.619-0.646
	l1.833-0.729c0.515-0.203,1.025-0.406,1.52-0.614c0.489-0.208,0.953-0.416,1.416-0.625l1.734-0.77
	c0.479-0.214,0.958-0.422,1.411-0.635c0.557-0.265,1.083-0.536,1.608-0.806l1.005-0.5c0.51-0.25,1.026-0.505,1.499-0.76
	c0.51-0.271,0.979-0.546,1.452-0.823l1.208-0.692c0.349-0.193,0.697-0.39,1.02-0.588c0.672-0.416,1.281-0.833,1.895-1.255
	l0.734-0.489c0.203-0.13,0.411-0.26,0.599-0.396c16.07-11.593,30.287-34.873,42.26-69.184c0.068-0.203,0.036-0.427-0.088-0.604
	C1975.225,1481.872,1975.022,1481.768,1974.808,1481.768z"/>
<path style="fill:#B6DFEC;" d="M2013.226,1236.246H230.083c-0.182,0-0.357,0.073-0.484,0.208c-0.125,0.13-0.19,0.312-0.182,0.494
	c2.951,56.066,7.746,106.634,14.272,150.643c-0.005,0.047-0.003,0.099,0.005,0.151c0.799,5.388,1.71,11.151,2.782,17.621
	c0.055,0.328,0.339,0.557,0.659,0.557c0.036,0,0.073-0.005,0.109-0.011c0.361-0.057,0.609-0.401,0.549-0.765
	c-0.013-0.068-0.023-0.135-0.034-0.203c-0.901-5.43-1.773-10.979-2.616-16.632h1752.534c0.328,0,0.603-0.234,0.656-0.557
	c7.34-43.942,12.577-94.677,15.56-150.805c0.01-0.182-0.057-0.364-0.182-0.494
	C2013.585,1236.319,2013.408,1236.246,2013.226,1236.246z"/>
<path style="fill:#B6DFEC;" d="M1680.753,722.728c-0.002,0.057-0.39-1.512-0.713-1.603c-0.047-0.016-0.094-0.021-0.141-0.026
	c-29.949-8.454-66.742-13.066-104.796-13.066c-74.822,0-138.113,16.809-165.183,43.868c-42.15,42.156-55.092,162.169-39.75,245.033
	c0,0.058,0,0.115,0.01,0.177c0.781,4.139,1.671,8.371,2.645,12.567c0.083,0.354,0.422,0.588,0.802,0.5
	c0.359-0.083,0.583-0.443,0.5-0.802c-0.87-3.727-1.677-7.553-2.416-11.463c30.959,8.257,69.184,12.551,107.712,12.551
	c65.472,0,131.772-12.416,164.537-38.887C1689.811,934.528,1700.092,811.022,1680.753,722.728z"/>
<path style="fill:#B6DFEC;" d="M516.513,864.022h656.579c8.1,0,14.685-6.586,14.685-14.685v-54.415
	c0-8.095-6.585-14.685-14.685-14.685H516.513c-8.098,0-14.686,6.59-14.686,14.685v54.415
	C501.827,857.436,508.415,864.022,516.513,864.022z"/>
<path style="fill:#B6DFEC;" d="M516.513,1049.074h656.579c8.1,0,14.685-6.59,14.685-14.685v-54.421
	c0-8.095-6.585-14.686-14.685-14.686H516.513c-8.098,0-14.686,6.591-14.686,14.686v54.421
	C501.827,1042.484,508.415,1049.074,516.513,1049.074z"/>
<path style="fill:#FFFFFF;" d="M913.735,556.311c-74.486,3.41-138.743,7.153-196.438,11.442
	c-48.981,3.649-93.443,7.747-132.145,12.187c-31.69,3.639-60.53,7.616-85.715,11.827c-20.513,3.426-38.527,6.966-55.071,10.812
	c-27.89,6.539-49.166,13.296-66.961,21.26c-10.977,4.971-19.761,10-27.643,15.815c-4.807,3.561-8.99,7.236-12.793,11.229
	c-4.584,4.825-8.329,9.813-11.448,15.247c-4.196,7.335-7.829,15.18-11.434,24.686c-5.302,14.055-9.865,29.959-14.352,50.047
	c-5.685,25.571-10.843,56.659-15.773,95.041c-4.123,32.182-8.168,70.319-12.369,116.598c-2.423,26.716,17.335,50.417,44.048,52.838
	c1.489,0.135,2.965,0.203,4.433,0.203c24.852,0,46.117-19.027,48.405-44.249c6.429-70.959,12.504-122.49,19.121-162.184
	c3.662-22.046,7.553-40.646,11.564-55.279c1.944-7.116,3.933-13.368,5.914-18.59c1.091-2.9,2.238-5.586,3.412-7.986
	c0.581-0.39,1.484-0.963,2.694-1.64c5.338-3.025,14.388-6.71,24.212-9.854c19.633-6.362,47.424-12.619,80.363-18.095
	c47.008-7.85,107.797-14.815,180.678-20.708c63.046-5.112,135.58-9.516,221.75-13.467c26.789-1.229,47.588-24.024,46.365-50.818
	C963.324,575.88,940.555,555.005,913.735,556.311z"/>
<path style="fill:#622B4C;" d="M2096.851,1566.174l-0.214-0.214c-0.807-4.274-6.596-33.342-15.07-33.342h-0.026
	c-9.423,0.068-14.576,30.23-15.086,33.348l-0.213,0.214c-4.28,0.78-33.343,6.387-33.343,15.091c0,9.428,30.209,14.582,33.343,15.092
	l0.213,0.213c0.495,3.123,5.518,33.348,15.092,33.348c9.88,0,14.633-30.209,15.102-33.353l0.208-0.208
	c3.134-0.51,33.343-5.664,33.343-15.092C2130.199,1571.843,2099.974,1566.684,2096.851,1566.174z"/>
<path style="fill:#622B4C;" d="M233.68,550.346c0-9.428-30.219-14.581-33.345-15.092l-0.221-0.219
	c-0.805-4.268-6.588-33.337-15.06-33.337h-0.029c-9.425,0.062-14.581,30.23-15.089,33.343l-0.219,0.219
	c-4.282,0.781-33.34,6.382-33.34,15.086c0,9.428,30.219,14.581,33.345,15.092l0.213,0.213c0.495,3.129,5.521,33.348,15.094,33.348
	c9.875,0,14.625-30.204,15.094-33.353l0.211-0.208C203.461,564.927,233.68,559.774,233.68,550.346z"/>
<path style="fill:#622B4C;" d="M301.842,460.604l0.554,0.557c0.674,4.306,8.977,55.228,24.688,55.228
	c16.218,0,24.05-50.891,24.688-55.232l0.552-0.552c4.31-0.692,55.227-9.214,55.227-24.685c0-15.472-50.93-23.993-55.227-24.686
	l-0.562-0.562c-0.799-4.233-10.711-55.217-24.641-55.217h-0.042c-15.466,0.104-23.991,50.932-24.683,55.227l-0.557,0.557
	c-4.248,0.776-55.225,10.364-55.225,24.68C246.614,451.39,297.529,459.912,301.842,460.604z"/>
<path style="fill:#622B4C;" d="M2034.256,1242.658c0.072-1.282,0.155-2.538,0.223-3.826c0.057-0.633,0.085-1.274,0.085-1.922
	c0-0.03-0.009-0.058-0.009-0.089c5.329-101.218,3.209-214.816-6.565-321.05c-8.429-91.612-29.885-253.995-78.888-312.243
	c-10.781-12.814-43.587-51.809-294.411-78.482c-142.115-15.113-328.56-23.436-524.987-23.436
	c-199.923,0.001-392.095,8.516-541.118,23.978c-260.047,26.981-293.712,65.033-304.775,77.538
	c-67.599,76.409-86.453,410.78-75.013,634.757c0.002,0.05-0.01,0.098-0.008,0.148c0.036,0.693,0.08,1.37,0.117,2.061
	c0.575,11.032,1.224,21.793,1.945,32.234c11.233,162.788,36.484,262.093,75.05,295.155c11.363,9.741,41.546,35.616,300.222,54.653
	c149.372,10.993,341.856,17.046,541.994,17.046c120.116,0,724.022-3.403,817.144-70.596c22.979-16.58,41.842-50.418,56.493-100.807
	c0.088-0.266,0.218-0.508,0.295-0.779c0.294-1.022,0.573-2.103,0.862-3.139c0.433-1.539,0.859-3.106,1.285-4.674
	c0.795-2.948,1.574-5.962,2.343-9.02c1.226-4.848,2.413-9.849,3.571-14.963c0.207-0.918,0.419-1.809,0.624-2.736
	c0.865-3.898,1.705-7.887,2.531-11.935c0.004-0.021,0.008-0.042,0.012-0.061c4.603-22.576,8.627-47.377,12.001-74.63
	c0.332-2.688,0.62-5.492,0.94-8.217c0.105-0.898,0.206-1.811,0.31-2.714c0.919-7.99,1.779-16.12,2.583-24.396
	c0.209-2.157,0.424-4.301,0.627-6.478c0.366-3.953,0.718-7.929,1.058-11.94c0.315-3.693,0.609-7.432,0.902-11.18
	c0.367-4.731,0.721-9.484,1.053-14.285c0.33-4.753,0.647-9.534,0.943-14.367C2033.89,1249.073,2034.076,1245.875,2034.256,1242.658z
	 M1932.786,1551.293c-0.312,0.225-0.682,0.446-1.01,0.67c-0.706,0.483-1.4,0.968-2.177,1.445c-0.514,0.317-1.097,0.627-1.64,0.942
	c-0.663,0.381-1.297,0.766-2.004,1.144c-0.634,0.34-1.338,0.673-2.007,1.01c-0.69,0.346-1.35,0.695-2.078,1.038
	c-0.717,0.339-1.502,0.673-2.256,1.009c-0.756,0.338-1.485,0.676-2.277,1.01c-0.789,0.332-1.64,0.66-2.464,0.989
	c-0.826,0.329-1.627,0.662-2.488,0.989c-0.887,0.337-1.836,0.669-2.761,1.003c-0.867,0.312-1.71,0.628-2.609,0.938
	c-0.963,0.333-1.984,0.66-2.984,0.989c-0.936,0.307-1.851,0.618-2.819,0.923c-1.031,0.325-2.116,0.646-3.183,0.968
	c-1,0.301-1.981,0.605-3.012,0.904c-1.12,0.325-2.29,0.645-3.445,0.965c-1.045,0.291-2.073,0.583-3.147,0.871
	c-1.205,0.323-2.458,0.641-3.7,0.96c-1.092,0.281-2.169,0.563-3.29,0.842c-1.271,0.316-2.589,0.628-3.897,0.94
	c-1.161,0.278-2.309,0.556-3.498,0.831c-1.343,0.311-2.732,0.618-4.113,0.925c-1.199,0.268-2.387,0.536-3.613,0.801
	c-1.448,0.313-2.937,0.621-4.422,0.931c-1.23,0.256-2.452,0.513-3.708,0.767c-1.501,0.304-3.041,0.604-4.577,0.904
	c-1.303,0.254-2.598,0.51-3.927,0.761c-1.575,0.299-3.186,0.594-4.795,0.89c-1.341,0.246-2.677,0.493-4.043,0.737
	c-1.638,0.292-3.31,0.58-4.981,0.87c-1.408,0.243-2.813,0.487-4.244,0.728c-1.692,0.284-3.417,0.566-5.141,0.847
	c-1.452,0.236-2.901,0.473-4.377,0.707c-1.794,0.285-3.619,0.567-5.446,0.849c-1.458,0.224-2.914,0.448-4.394,0.67
	c-1.874,0.281-3.775,0.56-5.684,0.837c-1.502,0.219-3.005,0.437-4.527,0.654c-1.936,0.275-3.895,0.547-5.863,0.818
	c-1.54,0.212-3.082,0.425-4.642,0.635c-2.028,0.273-4.08,0.543-6.141,0.812c-1.547,0.202-3.098,0.404-4.664,0.604
	c-2.102,0.268-4.226,0.534-6.362,0.799c-1.583,0.196-3.171,0.392-4.772,0.586c-2.161,0.262-4.341,0.522-6.533,0.78
	c-1.637,0.193-3.281,0.385-4.937,0.575c-2.219,0.256-4.456,0.509-6.708,0.761c-1.647,0.184-3.303,0.367-4.968,0.55
	c-2.31,0.253-4.636,0.504-6.979,0.753c-1.673,0.179-3.355,0.356-5.044,0.532c-2.358,0.245-4.732,0.489-7.121,0.731
	c-1.731,0.175-3.47,0.349-5.217,0.522c-2.378,0.236-4.769,0.47-7.176,0.702c-1.793,0.173-3.597,0.344-5.406,0.516
	c-2.468,0.233-4.947,0.464-7.445,0.693c-1.734,0.159-3.477,0.317-5.224,0.473c-2.602,0.234-5.214,0.467-7.847,0.696
	c-1.722,0.151-3.456,0.3-5.192,0.448c-2.665,0.229-5.34,0.455-8.036,0.679c-1.758,0.146-3.527,0.291-5.297,0.435
	c-2.724,0.222-5.455,0.443-8.208,0.661c-1.763,0.14-3.539,0.278-5.315,0.416c-2.793,0.217-5.593,0.432-8.416,0.645
	c-1.812,0.137-3.638,0.271-5.462,0.406c-2.803,0.207-5.611,0.414-8.442,0.617c-1.873,0.134-3.761,0.267-5.646,0.4
	c-2.828,0.199-5.66,0.398-8.514,0.592c-1.889,0.13-3.792,0.256-5.692,0.384c-2.925,0.195-5.853,0.391-8.805,0.583
	c-1.833,0.119-3.679,0.236-5.522,0.353c-3.019,0.193-6.042,0.385-9.089,0.574c-1.835,0.113-3.686,0.224-5.53,0.336
	c-3.089,0.187-6.179,0.375-9.293,0.558c-1.881,0.11-3.776,0.218-5.665,0.327c-3.079,0.177-6.16,0.354-9.264,0.527
	c-1.988,0.111-3.993,0.22-5.992,0.329c-3.04,0.166-6.079,0.332-9.141,0.495c-1.988,0.105-3.991,0.208-5.988,0.311
	c-3.186,0.165-6.371,0.33-9.58,0.491c-1.852,0.093-3.72,0.182-5.58,0.274c-3.268,0.161-6.534,0.323-9.824,0.479
	c-1.978,0.093-3.971,0.185-5.956,0.277c-3.284,0.152-6.565,0.306-9.87,0.454c-1.838,0.083-3.692,0.162-5.536,0.243
	c-3.441,0.152-6.88,0.303-10.344,0.45c-1.791,0.076-3.595,0.148-5.392,0.223c-3.535,0.147-7.07,0.295-10.627,0.437
	c-1.802,0.071-3.617,0.14-5.425,0.211c-3.588,0.141-7.175,0.281-10.785,0.417c-1.596,0.06-3.205,0.117-4.806,0.176
	c-3.834,0.142-7.668,0.284-11.524,0.419c-1.608,0.057-3.23,0.11-4.843,0.166c-3.824,0.132-7.646,0.264-11.491,0.392
	c-1.586,0.052-3.185,0.101-4.775,0.152c-3.988,0.13-7.977,0.259-11.985,0.382c-0.238,0.008-0.478,0.014-0.716,0.022
	c-26.139,0.802-52.714,1.481-79.595,2.042c-1.226,0.026-2.447,0.054-3.676,0.079c-3.809,0.078-7.633,0.15-11.453,0.223
	c-1.91,0.036-3.814,0.075-5.727,0.111c-3.734,0.069-7.48,0.132-11.226,0.197c-2.008,0.035-4.011,0.071-6.022,0.104
	c-3.608,0.06-7.226,0.115-10.843,0.17c-2.163,0.033-4.322,0.068-6.488,0.099c-3.56,0.052-7.129,0.099-10.696,0.147
	c-2.232,0.03-4.461,0.062-6.697,0.09c-3.464,0.044-6.936,0.084-10.406,0.123c-2.355,0.027-4.706,0.057-7.064,0.082
	c-3.371,0.036-6.749,0.068-10.125,0.101c-2.467,0.023-4.932,0.05-7.401,0.072c-3.278,0.029-6.56,0.054-9.841,0.08
	c-2.574,0.02-5.146,0.042-7.722,0.06c-3.245,0.023-6.494,0.042-9.742,0.061c-2.625,0.016-5.247,0.033-7.873,0.047
	c-3.205,0.017-6.414,0.03-9.622,0.043c-2.628,0.012-5.258,0.023-7.889,0.032c-3.227,0.012-6.456,0.019-9.686,0.027
	c-2.67,0.006-5.338,0.013-8.008,0.017c-3.195,0.005-6.391,0.008-9.586,0.01c-1.977,0.001-3.952,0.005-5.928,0.005
	c-0.658,0-1.316-0.002-1.973-0.002c-3.508-0.001-7.015-0.006-10.523-0.01c-2.533-0.003-5.067-0.005-7.601-0.01
	c-3.429-0.008-6.858-0.018-10.286-0.029c-2.56-0.008-5.121-0.015-7.68-0.025c-3.371-0.014-6.74-0.031-10.11-0.047
	c-2.664-0.013-5.329-0.026-7.992-0.041c-3.499-0.021-6.993-0.045-10.489-0.069c-2.411-0.017-4.823-0.031-7.233-0.05
	c-3.624-0.028-7.245-0.06-10.867-0.091c-2.404-0.021-4.809-0.041-7.211-0.062c-3.528-0.034-7.051-0.071-10.576-0.109
	c-2.424-0.026-4.85-0.049-7.271-0.076c-3.792-0.043-7.577-0.091-11.363-0.138c-2.14-0.027-4.284-0.051-6.422-0.08
	c-3.742-0.049-7.476-0.103-11.211-0.157c-2.243-0.032-4.49-0.062-6.729-0.096c-3.398-0.052-6.787-0.108-10.178-0.163
	c-2.561-0.042-5.125-0.08-7.682-0.124c-3.433-0.059-6.855-0.122-10.281-0.183c-2.439-0.044-4.883-0.086-7.318-0.132
	c-3.511-0.066-7.011-0.139-10.514-0.208c-2.389-0.047-4.784-0.093-7.169-0.143c-4.018-0.084-8.019-0.173-12.024-0.262
	c-1.8-0.039-3.606-0.077-5.403-0.118c-11.66-0.266-23.262-0.553-34.794-0.862c-2.183-0.059-4.351-0.122-6.529-0.182
	c-3.563-0.098-7.131-0.195-10.681-0.297c-2.593-0.075-5.17-0.155-7.756-0.231c-3.123-0.094-6.253-0.184-9.365-0.281
	c-2.984-0.092-5.95-0.189-8.923-0.285c-2.649-0.085-5.308-0.167-7.949-0.254c-2.825-0.094-5.632-0.192-8.448-0.287
	c-2.876-0.099-5.759-0.195-8.623-0.296c-2.558-0.09-5.097-0.184-7.645-0.277c-3.008-0.108-6.022-0.216-9.015-0.328
	c-2.764-0.104-5.508-0.212-8.26-0.318c-2.765-0.107-5.536-0.212-8.289-0.32c-2.823-0.112-5.625-0.229-8.435-0.343
	c-2.664-0.109-5.335-0.216-7.987-0.328c-2.858-0.12-5.695-0.245-8.54-0.367c-2.584-0.112-5.174-0.223-7.746-0.336
	c-2.75-0.122-5.479-0.248-8.215-0.373c-2.659-0.121-5.323-0.241-7.969-0.366c-2.713-0.127-5.406-0.257-8.105-0.388
	c-2.594-0.125-5.195-0.248-7.775-0.375c-2.805-0.139-5.587-0.28-8.375-0.422c-2.451-0.124-4.908-0.247-7.345-0.374
	c-2.732-0.142-5.443-0.287-8.158-0.432c-2.521-0.135-5.047-0.268-7.553-0.406c-2.635-0.144-5.248-0.292-7.865-0.438
	c-2.479-0.14-4.963-0.277-7.427-0.42c-2.729-0.156-5.437-0.316-8.148-0.476c-2.327-0.136-4.657-0.273-6.969-0.412
	c-2.727-0.164-5.432-0.332-8.139-0.499c-2.277-0.141-4.557-0.281-6.82-0.424c-2.708-0.171-5.394-0.345-8.08-0.52
	c-2.228-0.144-4.457-0.288-6.669-0.435c-2.661-0.176-5.301-0.356-7.94-0.536c-2.219-0.151-4.438-0.302-6.64-0.455
	c-2.575-0.179-5.13-0.361-7.682-0.543c-2.208-0.158-4.417-0.315-6.609-0.474c-2.548-0.186-5.076-0.374-7.601-0.563
	c-2.164-0.162-4.327-0.324-6.474-0.488c-2.463-0.188-4.907-0.378-7.347-0.57c-2.176-0.171-4.348-0.341-6.505-0.514
	c-2.425-0.194-4.832-0.391-7.233-0.588c-2.105-0.172-4.204-0.346-6.289-0.521c-2.368-0.199-4.72-0.4-7.064-0.601
	c-2.121-0.182-4.234-0.366-6.333-0.551c-2.268-0.2-4.52-0.401-6.766-0.604c-2.083-0.187-4.159-0.377-6.222-0.567
	c-2.254-0.208-4.493-0.418-6.721-0.629c-2.008-0.19-4.005-0.381-5.992-0.573c-2.219-0.215-4.422-0.431-6.614-0.649
	c-1.965-0.195-3.919-0.39-5.861-0.589c-2.161-0.22-4.308-0.44-6.442-0.662c-1.916-0.2-3.82-0.401-5.714-0.603
	c-2.112-0.225-4.211-0.452-6.294-0.68c-1.866-0.204-3.717-0.41-5.56-0.616c-2.067-0.232-4.124-0.464-6.162-0.699
	c-1.825-0.209-3.632-0.422-5.434-0.634c-1.984-0.233-3.958-0.468-5.914-0.704c-1.794-0.218-3.569-0.436-5.339-0.655
	c-1.926-0.239-3.843-0.479-5.74-0.72c-1.747-0.223-3.473-0.447-5.195-0.672c-1.854-0.242-3.702-0.484-5.526-0.73
	c-1.726-0.231-3.428-0.465-5.126-0.699c-1.766-0.244-3.528-0.487-5.264-0.733c-1.671-0.237-3.318-0.475-4.962-0.714
	c-1.717-0.25-3.432-0.5-5.119-0.752c-1.622-0.243-3.216-0.488-4.81-0.733c-1.643-0.253-3.285-0.506-4.898-0.761
	c-1.577-0.25-3.123-0.502-4.671-0.755c-1.57-0.255-3.142-0.511-4.682-0.77c-1.521-0.256-3.009-0.513-4.499-0.771
	c-1.512-0.262-3.027-0.523-4.508-0.787c-1.47-0.262-2.904-0.527-4.342-0.792c-1.425-0.263-2.855-0.524-4.249-0.788
	c-1.433-0.272-2.827-0.547-4.227-0.822c-1.354-0.265-2.714-0.53-4.037-0.798c-1.356-0.275-2.669-0.552-3.992-0.83
	c-1.291-0.271-2.593-0.541-3.853-0.814c-1.312-0.284-2.58-0.573-3.857-0.86c-1.205-0.271-2.422-0.542-3.596-0.815
	c-1.26-0.293-2.472-0.591-3.696-0.886c-1.124-0.273-2.263-0.544-3.356-0.819c-1.195-0.301-2.34-0.604-3.497-0.907
	c-1.056-0.277-2.129-0.552-3.153-0.83c-1.144-0.312-2.234-0.627-3.337-0.941c-0.96-0.273-1.942-0.544-2.871-0.82
	c-1.104-0.327-2.149-0.658-3.21-0.988c-0.865-0.269-1.754-0.537-2.59-0.808c-1.028-0.333-1.994-0.672-2.978-1.007
	c-0.8-0.274-1.627-0.546-2.398-0.822c-0.953-0.341-1.841-0.687-2.747-1.031c-0.725-0.275-1.48-0.547-2.175-0.824
	c-0.891-0.354-1.712-0.714-2.554-1.072c-0.639-0.271-1.311-0.541-1.922-0.814c-0.829-0.372-1.585-0.747-2.362-1.122
	c-0.548-0.264-1.132-0.527-1.654-0.793c-0.8-0.408-1.521-0.821-2.259-1.234c-0.424-0.236-0.887-0.471-1.29-0.709
	c-0.787-0.465-1.49-0.935-2.197-1.405c-0.287-0.191-0.613-0.378-0.885-0.569c-0.947-0.663-1.816-1.332-2.601-2.004
	c-1.429-1.225-2.828-2.622-4.213-4.098c-0.385-0.412-0.767-0.844-1.149-1.274c-1.098-1.237-2.182-2.55-3.252-3.942
	c-0.298-0.386-0.6-0.75-0.896-1.149c-1.314-1.775-2.606-3.665-3.878-5.67c-0.295-0.465-0.583-0.966-0.876-1.444
	c-1.008-1.643-2.002-3.358-2.983-5.145c-0.357-0.65-0.714-1.296-1.068-1.965c-1.198-2.267-2.382-4.605-3.54-7.08
	c-0.068-0.146-0.136-0.299-0.204-0.446c-1.126-2.424-2.227-4.974-3.314-7.59c-0.348-0.837-0.691-1.694-1.035-2.55
	c-0.856-2.132-1.699-4.324-2.531-6.574c-0.288-0.78-0.582-1.537-0.867-2.331c-1.045-2.905-2.069-5.902-3.075-8.989
	c-0.301-0.923-0.594-1.883-0.891-2.823c-0.602-1.903-1.202-3.82-1.789-5.786h1710.588
	C1963.364,1515.227,1949.422,1539.289,1932.786,1551.293z M1997.675,1387.646v0.002c-1.002,5.994-2.061,11.835-3.148,17.601
	c-0.264,1.402-0.531,2.799-0.8,4.188c-2.219,11.434-4.611,22.381-7.177,32.791c-0.319,1.291-0.64,2.573-0.964,3.848
	c-1.305,5.136-2.638,10.186-4.031,15.039H258.431c-1.202-4.85-2.354-9.896-3.486-15.028c-0.283-1.282-0.563-2.571-0.841-3.87
	c-2.229-10.406-4.318-21.35-6.268-32.783c-0.236-1.385-0.47-2.777-0.703-4.176c-8.152-49.121-13.809-106.783-17.05-168.348h1783.144
	C2010.336,1291.257,2005.205,1342.577,1997.675,1387.646z M2014.245,1215.687c-0.335-0.016-0.65-0.1-0.989-0.1H230.084
	c-0.344,0-0.674,0.087-1.016,0.104c-10.49-242.838,15.206-535.696,70.713-598.436c54.963-62.127,444.411-94.322,829.922-94.322
	c91.438,0,182.641,1.816,269.121,5.469l-0.004-0.004c0.524,0.022,1.04,0.048,1.563,0.07c15.715,0.668,31.269,1.398,46.641,2.188
	c1.104,0.057,2.209,0.113,3.312,0.171c15.351,0.799,30.51,1.66,45.461,2.582c1.031,0.063,2.062,0.126,3.09,0.19
	c7.541,0.471,15.036,0.953,22.462,1.455c0.037,0.003,0.074,0.005,0.11,0.008c7.26,0.49,14.45,0.999,21.594,1.519
	c0.993,0.073,1.988,0.144,2.979,0.217c7.216,0.531,14.378,1.076,21.468,1.636c0.385,0.031,0.764,0.062,1.148,0.094
	c6.664,0.529,13.26,1.075,19.806,1.633c1.05,0.089,2.103,0.177,3.15,0.267c6.867,0.591,13.674,1.196,20.403,1.817
	c0.523,0.048,1.038,0.099,1.56,0.147c6.267,0.582,12.465,1.179,18.607,1.787c0.996,0.099,1.996,0.196,2.988,0.295
	c6.532,0.654,12.996,1.321,19.379,2.004c0.631,0.068,1.252,0.138,1.883,0.206c5.864,0.632,11.658,1.279,17.389,1.937
	c0.945,0.109,1.897,0.215,2.839,0.325c6.139,0.713,12.201,1.439,18.18,2.181c0.789,0.098,1.564,0.198,2.351,0.297
	c5.395,0.675,10.719,1.364,15.976,2.064c0.894,0.118,1.797,0.237,2.686,0.357c5.74,0.771,11.394,1.559,16.96,2.36
	c0.848,0.123,1.68,0.246,2.522,0.369c5.008,0.729,9.943,1.47,14.803,2.222c0.798,0.124,1.609,0.246,2.404,0.37
	c5.324,0.833,10.552,1.681,15.692,2.543c0.885,0.149,1.754,0.3,2.634,0.449c4.585,0.779,9.097,1.569,13.528,2.371
	c0.715,0.13,1.443,0.258,2.155,0.388c4.88,0.893,9.656,1.802,14.339,2.724c0.889,0.175,1.762,0.353,2.645,0.529
	c4.178,0.834,8.279,1.679,12.292,2.537c0.613,0.131,1.24,0.259,1.848,0.39c4.414,0.954,8.712,1.923,12.918,2.906
	c0.868,0.203,1.719,0.407,2.578,0.611c3.756,0.892,7.435,1.794,11.016,2.709c0.505,0.129,1.028,0.256,1.531,0.385
	c3.932,1.016,7.739,2.048,11.451,3.093c0.8,0.224,1.582,0.452,2.369,0.677c3.336,0.957,6.591,1.924,9.739,2.904
	c0.398,0.124,0.815,0.246,1.211,0.37c3.414,1.075,6.689,2.167,9.872,3.27c0.731,0.254,1.445,0.509,2.163,0.764
	c2.893,1.026,5.701,2.062,8.39,3.113c0.28,0.109,0.579,0.216,0.857,0.327c2.885,1.139,5.618,2.297,8.259,3.464
	c0.62,0.274,1.225,0.549,1.831,0.825c2.433,1.106,4.779,2.223,6.99,3.355c0.173,0.089,0.361,0.175,0.534,0.264
	c2.323,1.203,4.479,2.422,6.545,3.652c0.502,0.299,0.991,0.6,1.478,0.9c1.938,1.197,3.789,2.405,5.481,3.629
	c0.075,0.054,0.16,0.108,0.235,0.161c1.737,1.267,3.295,2.554,4.762,3.85c0.36,0.319,0.712,0.639,1.056,0.959
	c1.406,1.309,2.726,2.628,3.851,3.967l0.002,0c6.255,7.434,12.201,17.24,17.824,29.111c0.006,0.014,0.014,0.028,0.021,0.041
	c25.189,53.199,43.89,147.871,54.719,256.704c0.115,1.15,0.229,2.298,0.342,3.451
	C2015.309,1004.991,2018.494,1114.686,2014.245,1215.687z"/>
<path style="fill:#622B4C;" d="M1575.103,687.377c-12.297,0-36.419,0.591-63.857,4.338c-40.532,5.534-88.305,17.96-115.926,45.582
	c-41.132,41.132-55.494,136.05-51.481,211.873c2.194,41.453,12.018,115.959,53.156,149.201c20.387,16.473,52.8,28.9,92.37,36.188
	c25.945,4.779,54.939,7.37,85.738,7.37c77.773,0,144.355-16.282,178.108-43.557c41.138-33.242,50.962-107.748,53.156-149.201
	c4.013-75.823-10.348-170.741-51.481-211.873C1708.567,690.977,1605.567,687.377,1575.103,687.377z M1773.383,821.133
	c1.131,4.324,2.163,8.78,3.141,13.299c1.409,6.506,2.661,13.19,3.749,20.018c0.173,1.087,0.345,2.171,0.509,3.264
	c12.847,85.179,0.819,190.302-40.972,224.072c-2.002,1.617-4.138,3.184-6.4,4.701c-33.921,22.746-96.113,34.119-158.307,34.119
	c-8.774,0-17.543-0.242-26.238-0.695c-7.38-0.384-14.701-0.928-21.919-1.639c-0.871-0.086-1.735-0.179-2.603-0.269
	c-31.509-3.285-60.889-9.685-84.029-19.234c-11.76-4.852-21.911-10.514-29.918-16.984c-1.791-1.447-3.509-3.069-5.19-4.771
	c-0.343-0.347-0.69-0.689-1.029-1.046c-1.586-1.676-3.124-3.454-4.61-5.348c-0.335-0.424-0.657-0.872-0.987-1.308
	c-1.311-1.737-2.587-3.547-3.819-5.446c-0.24-0.369-0.491-0.716-0.728-1.091c-1.293-2.05-2.526-4.214-3.73-6.434
	c-0.426-0.784-0.848-1.572-1.263-2.375c-1.103-2.141-2.177-4.336-3.204-6.616c-0.44-0.974-0.856-1.988-1.281-2.987
	c-0.676-1.588-1.334-3.205-1.975-4.852c-0.602-1.545-1.191-3.107-1.762-4.701c-0.641-1.793-1.268-3.609-1.87-5.462
	c-0.505-1.548-0.993-3.115-1.47-4.701c-0.361-1.203-0.704-2.429-1.05-3.653c-0.796-2.817-1.554-5.682-2.268-8.606
	c-0.232-0.949-0.462-1.9-0.685-2.86c-20.115-86.375-5.574-214.659,36.922-257.155c29.116-29.116,96.911-43.674,164.706-43.674
	c40.533,0,80.999,5.246,113.266,15.653c0.423,0.137,0.852,0.268,1.272,0.406c2.496,0.821,4.924,1.679,7.314,2.562
	c0.7,0.259,1.4,0.518,2.091,0.782c2.141,0.819,4.232,1.665,6.277,2.535c0.904,0.385,1.791,0.777,2.676,1.171
	c1.815,0.811,3.601,1.635,5.332,2.49c1.061,0.522,2.08,1.062,3.108,1.6c1.5,0.788,2.997,1.576,4.424,2.398
	c1.2,0.688,2.328,1.408,3.474,2.121c1.18,0.736,2.382,1.46,3.503,2.222c1.363,0.924,2.624,1.891,3.896,2.854
	c0.812,0.615,1.674,1.208,2.448,1.839c2.002,1.629,3.89,3.306,5.625,5.04c10.919,10.918,19.995,27.504,27.112,47.589
	C1769.295,806.657,1771.45,813.741,1773.383,821.133z"/>
<path style="fill:#622B4C;" d="M1173.089,759.578H516.513c-19.488,0-35.342,15.854-35.342,35.342v54.417
	c0,19.488,15.854,35.342,35.342,35.342h656.576c19.488,0,35.342-15.854,35.342-35.342v-54.417
	C1208.431,775.432,1192.577,759.578,1173.089,759.578z M1187.108,849.337c0,7.711-6.309,14.02-14.019,14.02H516.513
	c-7.711,0-14.02-6.309-14.02-14.02v-54.417c0-7.71,6.308-14.019,14.02-14.019h656.576c7.71,0,14.019,6.309,14.019,14.019V849.337z"
	/>
<path style="fill:#622B4C;" d="M1173.089,944.627H516.513c-19.488,0-35.342,15.855-35.342,35.343v54.417
	c0,19.488,15.854,35.342,35.342,35.342h656.576c19.488,0,35.342-15.854,35.342-35.342v-54.417
	C1208.431,960.482,1192.577,944.627,1173.089,944.627z M1187.108,1034.386c0,7.71-6.309,14.02-14.019,14.02H516.513
	c-7.711,0-14.02-6.309-14.02-14.02v-54.417c0-7.711,6.308-14.02,14.02-14.02h656.576c7.71,0,14.019,6.309,14.019,14.02V1034.386z"/>
</svg>
